<svg width="820" height="946" viewBox="0 0 820 946" fill="none" xmlns="http://www.w3.org/2000/svg">
  <path d="M410 125.523C636.437 125.523 820 309.087 820 535.523C820 761.96 636.437 945.523 410 945.523C340.95 945.523 275.887 928.453 218.8 898.304L249.867 835.527C297.585 861.051 352.102 875.523 410 875.523C597.777 875.523 750 723.3 750 535.523C750 347.747 597.777 195.523 410 195.523C222.223 195.523 70 347.747 70 535.523C70 595.386 85.4719 651.634 112.633 700.489L76.6191 774.23C28.3936 706.998 0 624.577 0 535.523C0 309.087 183.563 125.523 410 125.523Z" fill="#2A4232"/>
  <path d="M601.953 0.735352L343.882 552.25L520.793 407.953L502.114 385.342L501.504 384.603L502.46 384.525L650.46 372.525L651.078 372.475L650.996 373.09L630.496 526.59L630.358 527.618L629.64 526.87L605.973 502.217L416.158 671.605L564.457 891.523H437.862L294.087 672.566L175.458 941.726L175.326 942.023H20.1992L20.5508 941.304L479.051 3.80371L479.184 3.53223L479.485 3.52344L601.485 0.0234375L602.297 0L601.953 0.735352Z" fill="#2A4232"/>
</svg>
